<mxfile host="app.diagrams.net" agent="Mozilla/5.0 (Windows NT 10.0; Win64; x64) AppleWebKit/537.36 (KHTML, like Gecko) Chrome/129.0.0.0 Safari/537.36" version="24.7.17">
  <diagram name="Page-1" id="lPqaw-Gyz6umclhB08TS">
    <mxGraphModel dx="2074" dy="1132" grid="1" gridSize="10" guides="1" tooltips="1" connect="1" arrows="1" fold="1" page="1" pageScale="1" pageWidth="850" pageHeight="1100" math="0" shadow="0">
      <root>
        <mxCell id="0" />
        <mxCell id="1" parent="0" />
        <mxCell id="DeejxUEGED372TfmE-9G-42" value="Arstid" style="swimlane;fontStyle=0;childLayout=stackLayout;horizontal=1;startSize=26;horizontalStack=0;resizeParent=1;resizeParentMax=0;resizeLast=0;collapsible=1;marginBottom=0;align=center;fontSize=14;" vertex="1" parent="1">
          <mxGeometry x="295" y="420" width="130" height="122" as="geometry" />
        </mxCell>
        <mxCell id="DeejxUEGED372TfmE-9G-43" value="DoctorId (int)" style="text;strokeColor=none;fillColor=none;spacingLeft=4;spacingRight=4;overflow=hidden;rotatable=0;points=[[0,0.5],[1,0.5]];portConstraint=eastwest;fontSize=12;whiteSpace=wrap;html=1;" vertex="1" parent="DeejxUEGED372TfmE-9G-42">
          <mxGeometry y="26" width="130" height="30" as="geometry" />
        </mxCell>
        <mxCell id="DeejxUEGED372TfmE-9G-44" value="Name (varchar)" style="text;strokeColor=none;fillColor=none;spacingLeft=4;spacingRight=4;overflow=hidden;rotatable=0;points=[[0,0.5],[1,0.5]];portConstraint=eastwest;fontSize=12;whiteSpace=wrap;html=1;" vertex="1" parent="DeejxUEGED372TfmE-9G-42">
          <mxGeometry y="56" width="130" height="30" as="geometry" />
        </mxCell>
        <mxCell id="DeejxUEGED372TfmE-9G-45" value="Specialization (varchar)" style="text;strokeColor=none;fillColor=none;spacingLeft=4;spacingRight=4;overflow=hidden;rotatable=0;points=[[0,0.5],[1,0.5]];portConstraint=eastwest;fontSize=12;whiteSpace=wrap;html=1;" vertex="1" parent="DeejxUEGED372TfmE-9G-42">
          <mxGeometry y="86" width="130" height="36" as="geometry" />
        </mxCell>
        <mxCell id="DeejxUEGED372TfmE-9G-47" value="Users" style="swimlane;fontStyle=0;childLayout=stackLayout;horizontal=1;startSize=26;horizontalStack=0;resizeParent=1;resizeParentMax=0;resizeLast=0;collapsible=1;marginBottom=0;align=center;fontSize=14;" vertex="1" parent="1">
          <mxGeometry x="70" y="280" width="160" height="116" as="geometry" />
        </mxCell>
        <mxCell id="DeejxUEGED372TfmE-9G-48" value="UserId (int)" style="text;strokeColor=none;fillColor=none;spacingLeft=4;spacingRight=4;overflow=hidden;rotatable=0;points=[[0,0.5],[1,0.5]];portConstraint=eastwest;fontSize=12;whiteSpace=wrap;html=1;" vertex="1" parent="DeejxUEGED372TfmE-9G-47">
          <mxGeometry y="26" width="160" height="30" as="geometry" />
        </mxCell>
        <mxCell id="DeejxUEGED372TfmE-9G-49" value="Username (varchar)" style="text;strokeColor=none;fillColor=none;spacingLeft=4;spacingRight=4;overflow=hidden;rotatable=0;points=[[0,0.5],[1,0.5]];portConstraint=eastwest;fontSize=12;whiteSpace=wrap;html=1;" vertex="1" parent="DeejxUEGED372TfmE-9G-47">
          <mxGeometry y="56" width="160" height="30" as="geometry" />
        </mxCell>
        <mxCell id="DeejxUEGED372TfmE-9G-50" value="RegisterTime (datetime)" style="text;strokeColor=none;fillColor=none;spacingLeft=4;spacingRight=4;overflow=hidden;rotatable=0;points=[[0,0.5],[1,0.5]];portConstraint=eastwest;fontSize=12;whiteSpace=wrap;html=1;" vertex="1" parent="DeejxUEGED372TfmE-9G-47">
          <mxGeometry y="86" width="160" height="30" as="geometry" />
        </mxCell>
        <mxCell id="DeejxUEGED372TfmE-9G-51" value="TimeSlots" style="swimlane;fontStyle=0;childLayout=stackLayout;horizontal=1;startSize=26;horizontalStack=0;resizeParent=1;resizeParentMax=0;resizeLast=0;collapsible=1;marginBottom=0;align=center;fontSize=14;" vertex="1" parent="1">
          <mxGeometry x="380" y="220" width="160" height="122" as="geometry" />
        </mxCell>
        <mxCell id="DeejxUEGED372TfmE-9G-52" value="TimeSlotId (int)" style="text;strokeColor=none;fillColor=none;spacingLeft=4;spacingRight=4;overflow=hidden;rotatable=0;points=[[0,0.5],[1,0.5]];portConstraint=eastwest;fontSize=12;whiteSpace=wrap;html=1;" vertex="1" parent="DeejxUEGED372TfmE-9G-51">
          <mxGeometry y="26" width="160" height="30" as="geometry" />
        </mxCell>
        <mxCell id="DeejxUEGED372TfmE-9G-53" value="AvailabilityId (int)" style="text;strokeColor=none;fillColor=none;spacingLeft=4;spacingRight=4;overflow=hidden;rotatable=0;points=[[0,0.5],[1,0.5]];portConstraint=eastwest;fontSize=12;whiteSpace=wrap;html=1;" vertex="1" parent="DeejxUEGED372TfmE-9G-51">
          <mxGeometry y="56" width="160" height="30" as="geometry" />
        </mxCell>
        <mxCell id="DeejxUEGED372TfmE-9G-54" value="StartTime (time)&lt;div&gt;EndTime (time)&lt;/div&gt;" style="text;strokeColor=none;fillColor=none;spacingLeft=4;spacingRight=4;overflow=hidden;rotatable=0;points=[[0,0.5],[1,0.5]];portConstraint=eastwest;fontSize=12;whiteSpace=wrap;html=1;" vertex="1" parent="DeejxUEGED372TfmE-9G-51">
          <mxGeometry y="86" width="160" height="36" as="geometry" />
        </mxCell>
        <mxCell id="DeejxUEGED372TfmE-9G-55" value="Availability" style="swimlane;fontStyle=0;childLayout=stackLayout;horizontal=1;startSize=26;horizontalStack=0;resizeParent=1;resizeParentMax=0;resizeLast=0;collapsible=1;marginBottom=0;align=center;fontSize=14;" vertex="1" parent="1">
          <mxGeometry x="590" y="400" width="160" height="116" as="geometry" />
        </mxCell>
        <mxCell id="DeejxUEGED372TfmE-9G-56" value="AvailabilityId (int)" style="text;strokeColor=none;fillColor=none;spacingLeft=4;spacingRight=4;overflow=hidden;rotatable=0;points=[[0,0.5],[1,0.5]];portConstraint=eastwest;fontSize=12;whiteSpace=wrap;html=1;" vertex="1" parent="DeejxUEGED372TfmE-9G-55">
          <mxGeometry y="26" width="160" height="30" as="geometry" />
        </mxCell>
        <mxCell id="DeejxUEGED372TfmE-9G-57" value="DoctorId (int)" style="text;strokeColor=none;fillColor=none;spacingLeft=4;spacingRight=4;overflow=hidden;rotatable=0;points=[[0,0.5],[1,0.5]];portConstraint=eastwest;fontSize=12;whiteSpace=wrap;html=1;" vertex="1" parent="DeejxUEGED372TfmE-9G-55">
          <mxGeometry y="56" width="160" height="30" as="geometry" />
        </mxCell>
        <mxCell id="DeejxUEGED372TfmE-9G-58" value="IsAvailable (boolean)" style="text;strokeColor=none;fillColor=none;spacingLeft=4;spacingRight=4;overflow=hidden;rotatable=0;points=[[0,0.5],[1,0.5]];portConstraint=eastwest;fontSize=12;whiteSpace=wrap;html=1;" vertex="1" parent="DeejxUEGED372TfmE-9G-55">
          <mxGeometry y="86" width="160" height="30" as="geometry" />
        </mxCell>
        <mxCell id="DeejxUEGED372TfmE-9G-59" value="Invoices" style="swimlane;fontStyle=0;childLayout=stackLayout;horizontal=1;startSize=26;horizontalStack=0;resizeParent=1;resizeParentMax=0;resizeLast=0;collapsible=1;marginBottom=0;align=center;fontSize=14;" vertex="1" parent="1">
          <mxGeometry x="200" y="630" width="150" height="140" as="geometry" />
        </mxCell>
        <mxCell id="DeejxUEGED372TfmE-9G-60" value="InvoiceId (int)" style="text;strokeColor=none;fillColor=none;spacingLeft=4;spacingRight=4;overflow=hidden;rotatable=0;points=[[0,0.5],[1,0.5]];portConstraint=eastwest;fontSize=12;whiteSpace=wrap;html=1;" vertex="1" parent="DeejxUEGED372TfmE-9G-59">
          <mxGeometry y="26" width="150" height="30" as="geometry" />
        </mxCell>
        <mxCell id="DeejxUEGED372TfmE-9G-61" value="UserId (int)" style="text;strokeColor=none;fillColor=none;spacingLeft=4;spacingRight=4;overflow=hidden;rotatable=0;points=[[0,0.5],[1,0.5]];portConstraint=eastwest;fontSize=12;whiteSpace=wrap;html=1;" vertex="1" parent="DeejxUEGED372TfmE-9G-59">
          <mxGeometry y="56" width="150" height="30" as="geometry" />
        </mxCell>
        <mxCell id="DeejxUEGED372TfmE-9G-62" value="DoctorId (int)&lt;div&gt;&lt;span style=&quot;background-color: initial;&quot;&gt;&lt;br&gt;&lt;/span&gt;&lt;/div&gt;&lt;div&gt;&lt;span style=&quot;background-color: initial;&quot;&gt;IsPaid (boolean)&lt;/span&gt;&lt;/div&gt;" style="text;strokeColor=none;fillColor=none;spacingLeft=4;spacingRight=4;overflow=hidden;rotatable=0;points=[[0,0.5],[1,0.5]];portConstraint=eastwest;fontSize=12;whiteSpace=wrap;html=1;" vertex="1" parent="DeejxUEGED372TfmE-9G-59">
          <mxGeometry y="86" width="150" height="54" as="geometry" />
        </mxCell>
        <mxCell id="DeejxUEGED372TfmE-9G-79" style="edgeStyle=orthogonalEdgeStyle;rounded=0;orthogonalLoop=1;jettySize=auto;html=1;exitX=1;exitY=0.5;exitDx=0;exitDy=0;" edge="1" parent="DeejxUEGED372TfmE-9G-59" source="DeejxUEGED372TfmE-9G-62" target="DeejxUEGED372TfmE-9G-62">
          <mxGeometry relative="1" as="geometry" />
        </mxCell>
        <mxCell id="DeejxUEGED372TfmE-9G-63" value="InvoiceItems" style="swimlane;fontStyle=0;childLayout=stackLayout;horizontal=1;startSize=26;horizontalStack=0;resizeParent=1;resizeParentMax=0;resizeLast=0;collapsible=1;marginBottom=0;align=center;fontSize=14;" vertex="1" parent="1">
          <mxGeometry x="490" y="648" width="160" height="122" as="geometry" />
        </mxCell>
        <mxCell id="DeejxUEGED372TfmE-9G-64" value="InvoiceItemsId (int)" style="text;strokeColor=none;fillColor=none;spacingLeft=4;spacingRight=4;overflow=hidden;rotatable=0;points=[[0,0.5],[1,0.5]];portConstraint=eastwest;fontSize=12;whiteSpace=wrap;html=1;" vertex="1" parent="DeejxUEGED372TfmE-9G-63">
          <mxGeometry y="26" width="160" height="30" as="geometry" />
        </mxCell>
        <mxCell id="DeejxUEGED372TfmE-9G-65" value="invoiceId (int)" style="text;strokeColor=none;fillColor=none;spacingLeft=4;spacingRight=4;overflow=hidden;rotatable=0;points=[[0,0.5],[1,0.5]];portConstraint=eastwest;fontSize=12;whiteSpace=wrap;html=1;" vertex="1" parent="DeejxUEGED372TfmE-9G-63">
          <mxGeometry y="56" width="160" height="30" as="geometry" />
        </mxCell>
        <mxCell id="DeejxUEGED372TfmE-9G-66" value="Description (varchar)&lt;div&gt;Amount (decimal)&lt;/div&gt;" style="text;strokeColor=none;fillColor=none;spacingLeft=4;spacingRight=4;overflow=hidden;rotatable=0;points=[[0,0.5],[1,0.5]];portConstraint=eastwest;fontSize=12;whiteSpace=wrap;html=1;" vertex="1" parent="DeejxUEGED372TfmE-9G-63">
          <mxGeometry y="86" width="160" height="36" as="geometry" />
        </mxCell>
        <mxCell id="DeejxUEGED372TfmE-9G-67" value="Visits" style="swimlane;fontStyle=0;childLayout=stackLayout;horizontal=1;startSize=26;horizontalStack=0;resizeParent=1;resizeParentMax=0;resizeLast=0;collapsible=1;marginBottom=0;align=center;fontSize=14;" vertex="1" parent="1">
          <mxGeometry x="150" y="820" width="160" height="116" as="geometry" />
        </mxCell>
        <mxCell id="DeejxUEGED372TfmE-9G-68" value="VisitId (int)" style="text;strokeColor=none;fillColor=none;spacingLeft=4;spacingRight=4;overflow=hidden;rotatable=0;points=[[0,0.5],[1,0.5]];portConstraint=eastwest;fontSize=12;whiteSpace=wrap;html=1;" vertex="1" parent="DeejxUEGED372TfmE-9G-67">
          <mxGeometry y="26" width="160" height="30" as="geometry" />
        </mxCell>
        <mxCell id="DeejxUEGED372TfmE-9G-69" value="UserId (int)" style="text;strokeColor=none;fillColor=none;spacingLeft=4;spacingRight=4;overflow=hidden;rotatable=0;points=[[0,0.5],[1,0.5]];portConstraint=eastwest;fontSize=12;whiteSpace=wrap;html=1;" vertex="1" parent="DeejxUEGED372TfmE-9G-67">
          <mxGeometry y="56" width="160" height="30" as="geometry" />
        </mxCell>
        <mxCell id="DeejxUEGED372TfmE-9G-70" value="DoctorId (int)" style="text;strokeColor=none;fillColor=none;spacingLeft=4;spacingRight=4;overflow=hidden;rotatable=0;points=[[0,0.5],[1,0.5]];portConstraint=eastwest;fontSize=12;whiteSpace=wrap;html=1;" vertex="1" parent="DeejxUEGED372TfmE-9G-67">
          <mxGeometry y="86" width="160" height="30" as="geometry" />
        </mxCell>
        <mxCell id="DeejxUEGED372TfmE-9G-71" value="Documents" style="swimlane;fontStyle=0;childLayout=stackLayout;horizontal=1;startSize=26;horizontalStack=0;resizeParent=1;resizeParentMax=0;resizeLast=0;collapsible=1;marginBottom=0;align=center;fontSize=14;" vertex="1" parent="1">
          <mxGeometry x="460" y="860" width="160" height="116" as="geometry" />
        </mxCell>
        <mxCell id="DeejxUEGED372TfmE-9G-72" value="DocumentId (int)" style="text;strokeColor=none;fillColor=none;spacingLeft=4;spacingRight=4;overflow=hidden;rotatable=0;points=[[0,0.5],[1,0.5]];portConstraint=eastwest;fontSize=12;whiteSpace=wrap;html=1;" vertex="1" parent="DeejxUEGED372TfmE-9G-71">
          <mxGeometry y="26" width="160" height="30" as="geometry" />
        </mxCell>
        <mxCell id="DeejxUEGED372TfmE-9G-73" value="VisitId (int)" style="text;strokeColor=none;fillColor=none;spacingLeft=4;spacingRight=4;overflow=hidden;rotatable=0;points=[[0,0.5],[1,0.5]];portConstraint=eastwest;fontSize=12;whiteSpace=wrap;html=1;" vertex="1" parent="DeejxUEGED372TfmE-9G-71">
          <mxGeometry y="56" width="160" height="30" as="geometry" />
        </mxCell>
        <mxCell id="DeejxUEGED372TfmE-9G-74" value="FilePath (varchar)" style="text;strokeColor=none;fillColor=none;spacingLeft=4;spacingRight=4;overflow=hidden;rotatable=0;points=[[0,0.5],[1,0.5]];portConstraint=eastwest;fontSize=12;whiteSpace=wrap;html=1;" vertex="1" parent="DeejxUEGED372TfmE-9G-71">
          <mxGeometry y="86" width="160" height="30" as="geometry" />
        </mxCell>
        <mxCell id="DeejxUEGED372TfmE-9G-75" style="edgeStyle=orthogonalEdgeStyle;rounded=0;orthogonalLoop=1;jettySize=auto;html=1;exitX=1;exitY=0.5;exitDx=0;exitDy=0;" edge="1" parent="1" source="DeejxUEGED372TfmE-9G-68" target="DeejxUEGED372TfmE-9G-73">
          <mxGeometry relative="1" as="geometry">
            <Array as="points">
              <mxPoint x="380" y="861" />
              <mxPoint x="380" y="931" />
            </Array>
          </mxGeometry>
        </mxCell>
        <mxCell id="DeejxUEGED372TfmE-9G-76" style="edgeStyle=orthogonalEdgeStyle;rounded=0;orthogonalLoop=1;jettySize=auto;html=1;exitX=1;exitY=0.5;exitDx=0;exitDy=0;entryX=0.019;entryY=0.233;entryDx=0;entryDy=0;entryPerimeter=0;" edge="1" parent="1" source="DeejxUEGED372TfmE-9G-60" target="DeejxUEGED372TfmE-9G-64">
          <mxGeometry relative="1" as="geometry" />
        </mxCell>
        <mxCell id="DeejxUEGED372TfmE-9G-77" style="edgeStyle=orthogonalEdgeStyle;rounded=0;orthogonalLoop=1;jettySize=auto;html=1;exitX=0;exitY=0.5;exitDx=0;exitDy=0;entryX=0;entryY=0.5;entryDx=0;entryDy=0;" edge="1" parent="1" source="DeejxUEGED372TfmE-9G-61" target="DeejxUEGED372TfmE-9G-48">
          <mxGeometry relative="1" as="geometry" />
        </mxCell>
        <mxCell id="DeejxUEGED372TfmE-9G-82" style="edgeStyle=orthogonalEdgeStyle;rounded=0;orthogonalLoop=1;jettySize=auto;html=1;exitX=0;exitY=0.5;exitDx=0;exitDy=0;" edge="1" parent="1" source="DeejxUEGED372TfmE-9G-56" target="DeejxUEGED372TfmE-9G-53">
          <mxGeometry relative="1" as="geometry" />
        </mxCell>
        <mxCell id="DeejxUEGED372TfmE-9G-83" style="edgeStyle=orthogonalEdgeStyle;rounded=0;orthogonalLoop=1;jettySize=auto;html=1;exitX=1;exitY=0.5;exitDx=0;exitDy=0;" edge="1" parent="1" source="DeejxUEGED372TfmE-9G-43" target="DeejxUEGED372TfmE-9G-57">
          <mxGeometry relative="1" as="geometry" />
        </mxCell>
        <mxCell id="DeejxUEGED372TfmE-9G-84" style="edgeStyle=orthogonalEdgeStyle;rounded=0;orthogonalLoop=1;jettySize=auto;html=1;exitX=1;exitY=0.5;exitDx=0;exitDy=0;" edge="1" parent="1" source="DeejxUEGED372TfmE-9G-65" target="DeejxUEGED372TfmE-9G-72">
          <mxGeometry relative="1" as="geometry" />
        </mxCell>
        <mxCell id="DeejxUEGED372TfmE-9G-85" style="edgeStyle=orthogonalEdgeStyle;rounded=0;orthogonalLoop=1;jettySize=auto;html=1;exitX=1;exitY=0.5;exitDx=0;exitDy=0;" edge="1" parent="1" source="DeejxUEGED372TfmE-9G-43" target="DeejxUEGED372TfmE-9G-58">
          <mxGeometry relative="1" as="geometry" />
        </mxCell>
      </root>
    </mxGraphModel>
  </diagram>
</mxfile>
